<?xml version="1.0" standalone="no"?>
<!DOCTYPE svg PUBLIC "-//W3C//DTD SVG 20010904//EN"
 "http://www.w3.org/TR/2001/REC-SVG-20010904/DTD/svg10.dtd">
<svg version="1.0" xmlns="http://www.w3.org/2000/svg"
 width="480.000000pt" height="320.000000pt" viewBox="0 0 480.000000 320.000000"
 preserveAspectRatio="xMidYMid meet">

<g transform="translate(0.000000,320.000000) scale(0.100000,-0.100000)"
fill="#000000" stroke="none">
<path d="M0 2510 c0 -655 1 -690 18 -690 10 0 24 9 32 20 8 11 22 20 32 20 11
0 18 7 18 20 0 13 7 20 19 20 11 0 22 6 25 13 5 10 7 10 12 0 10 -21 44 -16
44 7 0 17 7 20 39 20 22 0 42 5 44 13 4 10 6 10 6 0 1 -8 15 -13 36 -13 28 0
35 4 35 20 0 18 7 20 80 20 73 0 80 2 80 20 0 17 7 20 50 20 28 0 50 5 50 10
0 6 9 10 20 10 11 0 20 5 20 10 0 6 7 10 16 10 9 0 24 9 33 19 15 17 33 20
147 22 71 1 144 6 162 10 17 4 32 3 32 -1 0 -9 101 9 116 21 7 5 27 10 45 9
42 0 259 16 240 18 -30 4 3 17 62 25 126 17 217 20 217 5 0 -10 3 -9 10 2 9
13 11 13 20 0 7 -10 12 -12 18 -4 11 17 50 27 99 26 24 -1 43 3 43 8 0 6 23
10 50 10 30 0 50 4 50 11 0 8 4 8 15 -1 11 -9 26 -10 62 -2 27 6 87 14 136 17
48 4 87 11 87 16 0 13 38 11 42 -2 4 -13 118 9 118 23 0 4 14 8 30 8 17 0 30
4 30 8 0 20 384 21 421 2 15 -8 93 -10 270 -4 184 5 249 4 249 -5 0 -6 -17
-11 -37 -12 -21 0 -32 -3 -25 -6 23 -9 102 7 102 21 0 15 132 21 248 10 79 -7
97 -23 30 -26 -50 -2 198 -15 320 -17 68 -1 82 -4 82 -17 0 -11 -6 -15 -20
-11 -11 3 -20 1 -20 -4 0 -5 36 -9 80 -9 62 0 80 -3 80 -14 0 -11 25 -15 118
-19 64 -2 126 -6 137 -9 11 -3 57 -9 103 -13 60 -5 82 -11 82 -21 0 -8 9 -14
20 -14 20 0 20 7 20 530 l0 530 -2400 0 -2400 0 0 -690z"/>
<path d="M2680 2105 l-25 -14 35 0 c86 -1 93 -7 65 -61 -9 -18 -11 -30 -5 -30
6 0 13 7 16 15 4 8 10 12 15 9 5 -3 7 -9 4 -14 -3 -5 0 -12 6 -16 8 -4 9 -3 5
4 -11 17 5 14 41 -7 29 -18 40 -27 95 -73 12 -10 26 -18 31 -18 6 0 8 -3 5 -6
-9 -8 -82 19 -168 62 -131 65 -222 104 -241 104 -24 0 -43 -34 -26 -48 20 -16
98 -52 157 -72 30 -10 64 -22 74 -26 15 -6 17 -4 11 6 -19 30 139 -68 182
-114 27 -28 35 -39 18 -24 -43 38 -177 128 -189 128 -6 -1 0 -10 13 -20 26
-22 21 -26 -10 -7 -17 10 -22 9 -33 -6 -15 -19 -31 -8 -37 27 -2 11 -16 23
-32 27 -22 6 -27 5 -23 -6 2 -7 -2 -16 -10 -19 -24 -9 -26 -8 -19 14 5 15 2
20 -10 20 -13 0 -16 -6 -12 -22 3 -13 8 -33 11 -45 5 -25 -12 -31 -31 -12 -13
13 -47 -2 -56 -24 -4 -11 -18 -11 -84 1 -43 7 -134 15 -203 15 -105 2 -131 -1
-160 -17 -52 -27 -89 -66 -111 -116 -33 -73 -43 -80 -123 -80 -71 0 -71 0
-146 56 -41 31 -74 60 -72 63 2 3 -21 20 -51 36 -51 28 -64 31 -166 34 -89 2
-115 -1 -135 -14 l-26 -17 80 -78 c46 -46 93 -83 114 -90 24 -7 44 -25 62 -54
20 -32 51 -57 125 -101 55 -33 101 -66 104 -75 6 -19 42 -42 80 -50 22 -4 30
-12 30 -27 0 -12 3 -25 8 -29 4 -4 7 -2 7 4 0 7 11 12 25 12 23 0 24 -2 15
-20 -12 -22 -6 -40 13 -40 7 0 12 -12 13 -27 0 -16 3 -54 6 -85 6 -66 2 -75
-24 -51 -22 20 -23 42 -3 49 21 9 19 23 -4 21 -11 0 -19 -4 -18 -7 1 -3 -3 -5
-8 -5 -6 0 -9 12 -7 27 2 14 -2 29 -7 33 -6 3 -11 21 -12 38 0 18 -3 26 -6 20
-6 -15 -25 1 -36 30 -3 9 -15 17 -25 17 -11 0 -67 23 -125 50 -69 33 -115 50
-136 48 -17 -1 -31 -5 -31 -9 0 -3 -28 -10 -61 -13 -34 -4 -82 -16 -108 -26
-40 -16 -43 -19 -26 -27 11 -4 20 -15 20 -25 0 -9 27 -45 60 -80 57 -60 61
-66 58 -107 -1 -23 2 -52 8 -63 8 -14 8 -23 0 -31 -16 -16 -13 -38 7 -53 16
-12 15 -13 -5 -14 -12 0 -25 5 -28 10 -3 6 -11 10 -16 10 -6 0 -8 -4 -4 -9 3
-5 0 -21 -6 -34 -13 -28 -49 -43 -61 -24 -5 8 -9 6 -13 -5 -4 -10 1 -29 13
-45 34 -48 68 -243 45 -256 -23 -13 -38 11 -38 58 -1 28 -4 59 -8 70 -7 18 -9
17 -27 -10 -19 -30 -19 -30 3 -43 21 -13 21 -13 -6 -9 -26 4 -33 -1 -63 -49
-19 -29 -34 -56 -34 -59 0 -3 18 -5 39 -5 48 0 62 -16 27 -30 -30 -11 -304
-11 -311 0 -3 5 -36 18 -74 29 -39 12 -73 26 -77 32 -10 16 18 30 34 17 10 -8
15 -9 20 -1 9 14 54 9 154 -19 62 -17 76 -24 62 -30 -13 -6 -8 -7 15 -3 18 3
42 5 52 5 12 0 32 24 60 71 34 58 40 72 28 80 -8 5 -17 9 -21 9 -8 0 -32 40
-24 40 3 0 17 -11 32 -25 15 -14 30 -25 33 -25 3 0 19 20 35 45 26 42 27 49
17 88 -5 24 -8 54 -5 67 5 23 4 23 -6 6 -10 -15 -14 -16 -21 -5 -15 24 -10 29
26 23 19 -3 35 -1 35 4 0 14 -30 23 -51 17 -15 -5 -19 -1 -19 21 0 20 12 39
43 66 l42 39 38 -40 c20 -22 37 -37 37 -32 0 12 -118 148 -134 154 -9 4 -16
14 -16 22 0 9 -4 14 -10 10 -17 -10 -52 35 -47 61 2 13 1 24 -4 24 -10 0 -52
-55 -73 -98 -16 -31 -66 -61 -90 -54 -5 2 -38 5 -75 7 -95 6 -121 11 -166 29
-23 10 -50 14 -67 11 -16 -4 -41 0 -63 11 -23 11 -49 15 -75 11 -22 -3 -56 -1
-77 4 -21 5 -58 12 -83 16 -43 6 -61 7 -132 1 -18 -1 -47 5 -64 13 -17 9 -59
17 -94 18 -58 2 -120 23 -120 42 0 4 20 11 45 15 36 7 43 12 35 24 -7 11 -12
12 -21 3 -9 -9 -20 -7 -45 8 -19 10 -39 19 -44 19 -6 0 -10 -155 -10 -420 l0
-420 55 0 c30 0 55 -4 55 -9 0 -5 -16 -7 -36 -5 -42 5 -74 -3 -74 -18 0 -6 11
-8 28 -5 15 3 34 2 42 -3 8 -5 18 -6 23 -3 20 12 92 8 105 -7 9 -10 15 -11 18
-4 3 8 48 12 137 13 73 1 187 3 255 4 68 2 126 -1 129 -6 2 -4 11 -3 18 3 18
15 165 6 177 -12 7 -10 8 -9 4 5 -3 11 0 17 9 17 8 0 15 -4 15 -10 0 -5 7 -10
16 -10 8 0 13 4 10 9 -3 5 6 9 19 9 14 0 25 -4 25 -9 0 -5 -4 -9 -10 -9 -5 0
-10 -5 -10 -12 0 -6 10 -2 23 10 29 27 34 27 57 0 18 -23 18 -23 -13 -40 -28
-15 -29 -17 -9 -18 12 0 22 5 22 10 0 6 7 10 15 10 19 0 19 14 -1 34 -18 19
-20 18 55 20 34 0 54 -3 48 -7 -7 -5 -4 -6 8 -2 35 13 50 10 49 -7 -1 -10 4
-14 12 -11 8 3 12 9 9 13 -9 14 27 21 107 19 50 -1 78 -6 78 -13 0 -8 3 -8 8
0 7 11 97 14 495 17 119 1 217 0 217 -3 0 -3 179 -6 398 -6 950 -3 1271 -7
1266 -15 -3 -5 0 -9 5 -9 6 0 11 4 11 9 0 14 131 13 148 -1 11 -9 14 -9 9 -1
-6 9 68 12 315 12 208 0 318 -3 308 -9 -9 -6 -10 -10 -3 -10 6 0 15 5 18 10 3
6 35 10 71 10 l64 0 0 348 0 347 -62 1 c-35 1 -74 2 -88 3 -58 6 -242 -8 -256
-19 -7 -7 -23 -10 -35 -7 -11 3 -46 1 -77 -4 -79 -14 -290 -20 -297 -8 -9 13
-56 10 -85 -5 -17 -10 -30 -11 -43 -4 -11 5 -33 7 -51 4 -17 -3 -69 -6 -116
-7 -51 -2 -97 -8 -115 -17 -16 -9 -47 -14 -67 -13 -20 1 -40 -3 -43 -10 -5 -6
-19 11 -37 42 -36 68 -99 133 -162 169 -44 26 -46 29 -25 35 21 7 21 8 -11 22
-19 7 -39 12 -46 9 -6 -2 -15 -1 -20 4 -5 5 -26 10 -47 12 -20 1 -37 4 -37 6
0 2 29 16 65 33 35 16 69 38 75 48 13 25 13 71 0 71 -5 0 -10 7 -10 15 0 8 -8
15 -17 16 -11 0 -13 3 -5 6 36 14 -5 85 -162 277 -140 173 -241 266 -289 266
-18 -1 -43 -7 -57 -15z m177 -298 c-2 -6 -9 -13 -15 -15 -7 -2 -10 2 -6 12 4
10 1 16 -9 16 -11 0 -13 6 -9 22 l5 21 19 -23 c10 -13 17 -28 15 -33z m-666 9
c-18 -22 6 -26 152 -27 l132 0 -41 -19 c-23 -10 -45 -24 -50 -32 -6 -11 -5
-11 8 0 10 8 19 9 22 4 3 -6 -4 -16 -17 -24 -35 -23 -177 -88 -192 -88 -8 0
-17 -5 -20 -10 -5 -7 -11 -8 -19 -1 -6 5 -41 12 -76 14 -58 3 -90 -2 -167 -27
-18 -6 -22 -4 -17 8 3 9 11 16 17 16 21 0 86 80 93 115 3 19 11 38 17 42 16 9
161 50 166 47 2 -2 -1 -10 -8 -18z m314 -14 c-3 -3 -11 0 -18 7 -9 10 -8 11 6
5 10 -3 15 -9 12 -12z m-1044 -11 c23 -19 22 -19 -61 -5 -113 20 -117 22 -34
23 56 1 77 -3 95 -18z m1271 -3 c-7 -7 -12 -8 -12 -2 0 14 12 26 19 19 2 -3
-1 -11 -7 -17z m-36 -13 c-11 -8 -37 -15 -57 -15 -21 0 -50 -5 -66 -11 -22 -8
-25 -8 -16 2 12 12 102 37 138 38 20 0 20 0 1 -14z m214 -47 c0 -4 5 -8 11 -8
6 0 33 -10 61 -22 37 -16 46 -23 35 -30 -20 -10 -54 1 -36 12 8 5 -3 13 -30
21 -40 12 -71 40 -71 64 1 12 30 -25 30 -37z m-1472 -9 c2 -4 10 -5 18 -2 8 3
14 0 14 -6 0 -7 15 -26 33 -43 31 -30 31 -30 3 -12 -16 10 -42 17 -57 16 -15
-2 -29 1 -32 6 -3 4 8 7 26 6 18 -2 8 2 -21 9 -30 7 -58 19 -63 29 -8 14 -4
15 34 11 23 -4 43 -10 45 -14z m1266 -5 c10 -25 -1 -29 -14 -5 -6 12 -7 21 -1
21 5 0 12 -7 15 -16z m-187 0 c-3 -3 -12 -4 -19 -1 -8 3 -5 6 6 6 11 1 17 -2
13 -5z m173 -47 c0 -16 -18 3 -23 25 -6 22 -5 22 8 4 8 -11 15 -24 15 -29z
m327 -19 c-7 -4 -9 -8 -5 -8 3 0 14 -3 24 -7 11 -4 15 -3 11 4 -4 7 2 10 17 9
13 0 22 -3 20 -5 -2 -2 1 -10 7 -18 6 -7 8 -13 4 -13 -4 0 -2 -7 5 -15 10 -12
9 -15 -7 -15 -16 0 -19 -6 -15 -28 4 -32 -19 -58 -43 -48 -13 4 -14 10 -5 26
10 19 8 20 -37 20 -26 1 -143 13 -259 28 -160 21 -215 32 -228 45 -22 21 -13
22 19 1 22 -14 40 -15 152 -5 71 6 153 18 183 25 57 15 179 18 157 4z m-1419
-66 c20 -9 52 -17 70 -17 36 0 37 -1 18 -21 -22 -21 -49 -17 -94 16 -60 43
-57 52 6 22z m658 -10 c-3 -5 -16 -12 -28 -15 -13 -2 -30 -7 -39 -11 -10 -5
-16 -2 -16 8 0 18 24 30 56 27 17 -2 21 1 16 11 -6 10 -5 10 5 1 7 -6 10 -16
6 -21z m-411 8 c-3 -5 -21 -9 -38 -9 l-32 2 35 7 c19 4 36 8 38 9 2 0 0 -3 -3
-9z m835 -12 c0 -5 -9 -8 -20 -5 -11 3 -20 1 -20 -4 0 -12 57 -11 65 1 3 6 15
10 27 10 16 0 18 -3 10 -13 -8 -10 -6 -13 9 -14 10 -1 19 2 19 8 0 5 7 9 16 9
14 0 14 -2 0 -15 -13 -13 -28 -14 -92 -6 -42 5 -81 14 -87 20 -7 7 -16 7 -29
0 -23 -12 -39 -2 -19 11 21 12 121 11 121 -2z m-886 -13 c25 -4 46 -11 46 -15
0 -4 27 -18 60 -30 53 -20 60 -26 60 -49 0 -15 11 -42 25 -61 23 -31 24 -35 9
-52 -9 -9 -20 -15 -24 -13 -10 6 -23 65 -21 93 2 19 -2 22 -31 22 -38 0 -63
13 -54 28 11 19 -22 32 -98 38 -42 4 -76 9 -76 12 0 13 35 42 46 38 6 -2 32
-8 58 -11z m1326 -5 c0 -5 -7 -10 -16 -10 -8 0 -12 5 -9 10 3 6 10 10 16 10 5
0 9 -4 9 -10z m-281 -4 c-2 -2 -15 -9 -29 -15 -24 -11 -24 -11 -6 3 16 13 49
24 35 12z m-912 -22 c-3 -3 -12 -4 -19 -1 -8 3 -5 6 6 6 11 1 17 -2 13 -5z
m-115 -24 c25 0 28 -3 23 -21 -5 -16 2 -29 29 -54 20 -18 36 -40 36 -50 0 -16
-1 -16 -26 0 -15 9 -24 12 -20 7 4 -6 -2 -10 -13 -9 -14 1 -17 5 -10 13 7 8
-5 22 -40 47 -27 20 -55 46 -62 58 -11 21 -10 22 21 15 18 -3 46 -6 62 -6z
m1404 0 c-2 -3 -6 -13 -9 -23 -5 -14 -11 -16 -27 -7 -30 16 -25 37 9 36 16 -1
28 -3 27 -6z m-806 -36 c0 -9 -9 -48 -21 -86 -15 -53 -18 -73 -9 -83 7 -8 9
-19 5 -25 -8 -13 -32 -13 -37 1 -4 11 14 133 27 187 6 25 35 30 35 6z m549
-93 c-13 -4 -15 -2 -23 29 l-7 25 20 -25 c11 -14 15 -27 10 -29z m-84 -61 c40
-114 40 -109 14 -119 -33 -13 -47 9 -45 67 1 28 -6 64 -17 89 -10 23 -16 47
-12 53 12 20 31 -9 60 -90z m-1081 75 c11 -8 18 -17 15 -19 -2 -3 -15 4 -29
14 -14 11 -20 20 -15 19 6 0 19 -6 29 -14z m316 -5 c0 -5 -2 -10 -4 -10 -3 0
-8 5 -11 10 -3 6 -1 10 4 10 6 0 11 -4 11 -10z m40 -51 c0 -10 -4 -21 -10 -24
-5 -3 -10 0 -10 8 0 8 -7 18 -16 21 -13 5 -14 9 -4 21 15 19 40 3 40 -26z
m-90 21 c0 -5 -7 -10 -16 -10 -8 0 -12 5 -9 10 3 6 10 10 16 10 5 0 9 -4 9
-10z m165 -31 c-4 -5 -12 -9 -18 -8 -9 0 -8 2 1 6 6 2 9 10 6 15 -4 7 -2 8 5
4 6 -4 9 -12 6 -17z m-155 -14 c0 -8 -9 -15 -20 -15 -12 0 -32 -11 -46 -25
-14 -14 -27 -25 -29 -25 -10 0 17 56 32 68 23 17 63 15 63 -3z m724 -11 c3 -8
2 -12 -4 -9 -6 3 -10 10 -10 16 0 14 7 11 14 -7z m-504 -42 c0 -4 -8 -19 -18
-34 -17 -26 -18 -26 -41 -9 -21 16 -22 20 -10 39 8 12 18 22 23 22 4 0 2 8 -5
17 -9 11 -3 10 19 -6 17 -12 32 -25 32 -29z m-148 -1 c1 -18 -4 -37 -10 -43
-9 -9 -12 -2 -12 28 0 61 20 74 22 15z m28 29 c0 -5 -5 -10 -11 -10 -5 0 -7 5
-4 10 3 6 8 10 11 10 2 0 4 -4 4 -10z m-455 -20 c-7 -24 13 -28 22 -5 5 14 8
14 24 -1 16 -14 16 -18 4 -30 -8 -8 -12 -21 -9 -28 6 -15 -21 -46 -38 -46 -6
0 -8 3 -5 6 3 4 2 15 -3 24 -7 13 -5 20 7 24 12 5 13 10 5 18 -8 8 -15 8 -25
-1 -12 -9 -16 -8 -20 3 -3 8 -1 17 6 20 7 2 4 5 -5 5 -22 1 -24 -32 -3 -49 8
-7 14 -20 13 -29 -4 -21 -38 -47 -47 -34 -7 11 -83 34 -90 28 -2 -3 1 -5 7 -5
7 0 12 -7 12 -16 0 -27 -28 9 -32 41 -3 26 3 31 62 62 76 39 125 44 115 13z
m1013 -13 c2 -19 -1 -27 -12 -27 -9 0 -17 8 -17 18 -1 9 -4 4 -8 -12 -7 -35
-31 -47 -31 -16 0 28 31 70 50 67 8 -1 16 -15 18 -30z m-660 -12 c2 -23 0 -27
-7 -15 -9 13 -11 13 -11 -2 0 -18 -33 -33 -50 -23 -13 8 -13 31 1 56 7 14 19
19 37 17 22 -2 28 -9 30 -33z m-586 -27 c-12 -12 -35 -1 -27 12 3 5 13 6 21 3
10 -4 12 -9 6 -15z m1328 18 c0 -2 -7 -7 -16 -10 -8 -3 -12 -2 -9 4 6 10 25
14 25 6z m-984 -71 c-48 -30 -34 -74 24 -75 19 0 21 -3 12 -12 -9 -9 -22 -9
-59 0 -26 7 -53 17 -59 23 -13 11 -7 52 6 44 9 -6 70 26 70 37 0 4 -9 10 -20
13 -11 3 -20 10 -20 15 0 5 17 1 39 -8 l39 -17 -32 -20z m326 33 c-7 -7 -12
-8 -12 -2 0 14 12 26 19 19 2 -3 -1 -11 -7 -17z m70 11 c17 -9 18 -13 7 -20
-12 -8 -12 -10 1 -18 8 -5 18 -7 22 -5 4 3 5 -2 2 -10 -8 -20 -9 -20 -33 0
-11 10 -17 23 -14 30 3 8 -5 18 -18 23 -19 8 -20 10 -6 10 10 1 28 -4 39 -10z
m426 -14 c-4 -20 -1 -25 16 -26 14 -1 16 -3 5 -6 -8 -2 -25 0 -37 4 -21 8 -21
10 -6 31 20 29 27 28 22 -3z m162 -10 c-7 -9 -15 -13 -17 -11 -6 6 20 36 26
30 2 -2 -2 -10 -9 -19z m-690 1 c0 -8 -9 -24 -20 -37 l-19 -24 17 37 c19 41
22 45 22 24z m1088 -16 c26 -19 42 -38 42 -51 0 -20 -1 -20 -28 -2 -15 10 -36
23 -47 29 -20 11 -34 54 -17 54 5 0 28 -14 50 -30z m-1026 -13 c-2 -22 1 -25
20 -20 17 4 14 -1 -12 -18 -19 -13 -38 -22 -42 -21 -13 3 -9 -16 5 -21 8 -4 8
-6 0 -6 -20 -2 -44 58 -32 81 6 11 17 17 25 14 7 -3 13 -2 13 2 -3 17 2 23 14
19 6 -2 11 -16 9 -30z m595 -39 c-3 -8 -6 -5 -6 6 -1 11 2 17 5 13 3 -3 4 -12
1 -19z m-1057 8 c0 -11 -19 -15 -25 -6 -3 5 1 10 9 10 9 0 16 -2 16 -4z m-80
-19 c0 -7 -7 -22 -15 -33 -13 -17 -13 -16 -3 14 13 34 18 40 18 19z m35 3 c3
-5 2 -10 -4 -10 -5 0 -13 5 -16 10 -3 6 -2 10 4 10 5 0 13 -4 16 -10z m565 6
c0 -3 -4 -8 -10 -11 -5 -3 -10 -1 -10 4 0 6 5 11 10 11 6 0 10 -2 10 -4z
m-332 -26 c29 -27 28 -40 -4 -40 -21 0 -24 3 -19 21 5 14 2 25 -6 30 -8 5 -9
9 -3 9 5 0 20 -9 32 -20z m283 -3 c-10 -9 -11 -8 -5 6 3 10 9 15 12 12 3 -3 0
-11 -7 -18z m690 4 c13 -10 31 -16 39 -14 10 3 9 0 -3 -7 -9 -6 -15 -16 -11
-22 4 -6 9 -7 13 0 3 5 16 12 29 16 19 6 25 2 40 -36 11 -24 22 -55 26 -70 3
-16 11 -28 16 -28 21 0 9 -18 -20 -30 -26 -11 -32 -10 -47 8 -17 19 -20 19
-52 5 -24 -10 -31 -17 -22 -22 24 -15 -13 -20 -57 -8 -50 13 -55 27 -9 27 39
0 62 16 70 49 7 28 -21 90 -32 72 -6 -9 -14 -6 -32 8 -24 21 -23 23 20 25 30
1 41 26 12 26 -12 0 -21 5 -21 10 0 15 15 12 41 -9z m249 -11 c17 -17 18 -23
8 -34 -17 -18 -28 -11 -28 19 0 13 -6 26 -12 28 -10 4 -10 6 0 6 6 1 21 -8 32
-19z m-539 -17 c5 -115 3 -173 -7 -173 -19 0 -24 26 -24 116 0 68 3 84 15 84
9 0 15 -10 16 -27z m441 -39 c2 -19 0 -37 -4 -40 -4 -3 -8 6 -8 20 0 13 -3 31
-6 40 -3 9 -2 16 4 16 5 0 12 -16 14 -36z m-1170 14 c-8 -8 -17 -8 -34 0 -22
10 -21 11 12 11 26 1 31 -2 22 -11z m-390 -30 c-15 -15 -26 -4 -18 18 5 13 9
15 18 6 9 -9 9 -15 0 -24z m1367 8 c9 -10 9 -16 1 -21 -6 -4 -9 -12 -7 -19 10
-25 -12 -56 -39 -56 -21 0 -25 3 -19 18 4 9 9 30 11 46 6 42 32 58 53 32z
m-974 -6 c3 -5 -1 -10 -9 -10 -9 0 -16 5 -16 10 0 6 4 10 9 10 6 0 13 -4 16
-10z m30 -20 c3 -5 1 -10 -4 -10 -6 0 -11 5 -11 10 0 6 2 10 4 10 3 0 8 -4 11
-10z m-388 -6 c-3 -3 -12 -4 -19 -1 -8 3 -5 6 6 6 11 1 17 -2 13 -5z m1695
-49 c4 -21 3 -22 -18 -13 -32 15 -39 46 -9 40 14 -2 25 -13 27 -27z m-1315 3
c-3 -8 -6 -5 -6 6 -1 11 2 17 5 13 3 -3 4 -12 1 -19z m63 -102 c19 -1 -16 -3
-77 -4 -62 -1 -113 1 -113 6 0 6 107 6 190 -2z m1217 -15 c-10 -12 -9 -14 5
-9 10 4 19 1 22 -7 7 -20 -43 -78 -61 -71 -8 3 -12 2 -9 -3 3 -5 -1 -12 -10
-15 -10 -4 -13 -2 -8 6 5 8 2 9 -10 5 -10 -4 -15 -3 -11 3 3 6 -2 10 -12 10
-11 1 -4 8 20 21 28 15 38 26 37 42 -3 31 -3 32 24 32 20 0 22 -3 13 -14z
m-787 -11 c0 -21 -12 -24 -45 -11 -19 8 -19 8 0 19 30 17 45 14 45 -8z m50 0
c-6 -11 -15 -20 -20 -20 -14 0 -12 27 3 33 23 10 28 7 17 -13z m503 -17 c-4
-10 -9 -11 -19 -2 -11 9 -12 15 -3 26 14 17 31 -1 22 -24z m-1749 -12 c-6 -6
-24 19 -24 34 1 6 7 1 15 -9 8 -11 12 -22 9 -25z m991 8 c57 -8 82 -15 69 -20
-10 -3 -22 -4 -27 -2 -4 2 -29 5 -55 7 -48 2 -112 24 -112 39 0 4 8 3 18 -2
10 -5 58 -15 107 -22z m873 -32 c2 -12 -3 -17 -17 -17 -23 0 -24 1 -15 25 8
19 28 15 32 -8z m-1318 -63 c0 -8 -4 -14 -9 -14 -11 0 -22 26 -14 34 9 9 23
-3 23 -20z m1530 12 c0 -2 -8 -10 -17 -17 -16 -13 -17 -12 -4 4 13 16 21 21
21 13z m-46 -40 c-3 -8 -13 -17 -22 -21 -13 -5 -13 -2 3 15 21 24 26 25 19 6z
m-1464 -25 c0 -11 -4 -23 -10 -26 -6 -4 -10 5 -10 19 0 14 5 26 10 26 6 0 10
-9 10 -19z m-1221 -21 c-26 -4 -62 -5 -80 -1 -25 6 -13 8 46 8 70 0 74 0 34
-7z m829 -37 c3 -23 -24 -56 -39 -48 -13 9 -11 49 3 63 17 17 32 10 36 -15z
m136 -29 c28 -11 17 -22 -19 -21 -22 1 -35 6 -35 14 0 14 27 17 54 7z m-1344
-34 c0 -5 -4 -10 -9 -10 -6 0 -13 5 -16 10 -3 6 1 10 9 10 9 0 16 -4 16 -10z
m110 1 c0 -5 -23 -9 -50 -8 -31 0 -46 4 -38 8 18 12 88 11 88 0z m50 -6 c-7
-8 -18 -15 -24 -14 -7 0 -6 2 2 6 6 2 10 9 6 14 -3 5 2 9 12 9 13 0 14 -3 4
-15z m50 9 c0 -8 -19 -13 -24 -6 -3 5 1 9 9 9 8 0 15 -2 15 -3z m46 -1 c-10
-11 -36 -12 -36 -2 0 5 10 9 22 9 12 0 18 -3 14 -7z m74 -3 c0 -13 -30 -13
-50 0 -11 7 -7 10 18 10 17 0 32 -4 32 -10z"/>
<path d="M2231 1728 c-23 -24 -37 -44 -32 -46 18 -6 116 52 119 71 7 34 -42
20 -87 -25z"/>
<path d="M2958 1643 c7 -3 16 -2 19 1 4 3 -2 6 -13 5 -11 0 -14 -3 -6 -6z"/>
<path d="M2630 1608 c8 -8 165 -20 158 -13 -4 4 -42 9 -85 12 -43 3 -76 3 -73
1z"/>
<path d="M2808 1593 c7 -3 16 -2 19 1 4 3 -2 6 -13 5 -11 0 -14 -3 -6 -6z"/>
<path d="M2868 1593 c6 -2 18 -2 25 0 6 3 1 5 -13 5 -14 0 -19 -2 -12 -5z"/>
<path d="M2960 1580 c-19 -6 -12 -8 32 -9 31 -1 60 4 63 9 7 12 -58 12 -95 0z"/>
<path d="M2255 1260 c3 -5 11 -10 16 -10 6 0 7 5 4 10 -3 6 -11 10 -16 10 -6
0 -7 -4 -4 -10z"/>
<path d="M2950 970 c-9 -6 -10 -10 -3 -10 6 0 15 5 18 10 8 12 4 12 -15 0z"/>
<path d="M2970 925 c0 -8 7 -15 15 -15 8 0 15 7 15 15 0 8 -7 15 -15 15 -8 0
-15 -7 -15 -15z"/>
<path d="M1325 550 c-3 -5 -1 -10 4 -10 6 0 11 5 11 10 0 6 -2 10 -4 10 -3 0
-8 -4 -11 -10z"/>
<path d="M2613 2080 c-13 -5 -23 -12 -23 -15 0 -9 16 -5 36 10 22 16 19 18
-13 5z"/>
<path d="M23 1813 c-22 -4 -33 -33 -13 -33 6 0 10 5 10 10 0 6 9 10 20 10 11
0 20 5 20 10 0 6 -3 9 -7 9 -5 -1 -18 -4 -30 -6z"/>
<path d="M25 1562 c-3 -3 25 -17 62 -32 53 -21 71 -24 89 -16 12 6 20 13 18
16 -9 8 -163 38 -169 32z"/>
<path d="M820 1248 c-30 -5 -86 -13 -125 -17 -64 -6 -67 -8 -35 -15 19 -4 54
-3 77 2 23 5 43 6 45 1 2 -4 23 -2 48 6 25 7 65 18 90 23 l45 10 -45 0 c-25 0
-70 -5 -100 -10z"/>
<path d="M1011 1203 c-19 -3 -44 -11 -55 -19 -11 -8 -28 -14 -38 -14 -10 0
-18 -4 -18 -9 0 -13 43 -22 54 -11 6 6 29 10 53 10 32 0 45 5 53 19 5 11 20
22 32 24 29 5 -35 5 -81 0z"/>
<path d="M1910 1115 c0 -8 5 -15 10 -15 6 0 10 7 10 15 0 8 -4 15 -10 15 -5 0
-10 -7 -10 -15z"/>
<path d="M1300 991 c0 -5 7 -14 15 -21 11 -9 19 -8 37 5 15 12 17 15 6 12 -10
-4 -18 -3 -18 1 0 4 -9 8 -20 9 -11 1 -20 -2 -20 -6z"/>
<path d="M1365 941 c-3 -5 -1 -12 5 -16 5 -3 10 1 10 9 0 18 -6 21 -15 7z"/>
<path d="M915 585 c17 -8 37 -14 45 -14 8 0 -1 7 -20 14 -46 18 -64 17 -25 0z"/>
<path d="M148 463 c7 -3 16 -2 19 1 4 3 -2 6 -13 5 -11 0 -14 -3 -6 -6z"/>
<path d="M545 450 c3 -5 12 -7 20 -3 21 7 19 13 -6 13 -11 0 -18 -4 -14 -10z"/>
<path d="M985 450 c3 -5 8 -10 11 -10 2 0 4 5 4 10 0 6 -5 10 -11 10 -5 0 -7
-4 -4 -10z"/>
<path d="M846 442 c-3 -5 1 -9 9 -9 8 0 15 4 15 9 0 4 -4 8 -9 8 -6 0 -12 -4
-15 -8z"/>
<path d="M1050 439 c0 -5 5 -7 10 -4 6 3 10 8 10 11 0 2 -4 4 -10 4 -5 0 -10
-5 -10 -11z"/>
<path d="M8 433 c7 -3 16 -2 19 1 4 3 -2 6 -13 5 -11 0 -14 -3 -6 -6z"/>
<path d="M2798 433 c7 -3 16 -2 19 1 4 3 -2 6 -13 5 -11 0 -14 -3 -6 -6z"/>
<path d="M3175 430 c3 -5 10 -10 16 -10 5 0 9 5 9 10 0 6 -7 10 -16 10 -8 0
-12 -4 -9 -10z"/>
<path d="M85 393 c2 -10 6 -26 10 -35 4 -11 3 -18 -5 -18 -6 0 -8 5 -5 10 3 6
-1 10 -10 10 -9 0 -13 -5 -9 -11 4 -7 1 -10 -6 -7 -21 7 -24 28 -4 28 9 0 14
3 11 6 -4 4 -20 1 -37 -6 l-30 -12 0 -179 0 -179 2400 0 2400 0 0 121 0 121
-30 -6 c-19 -3 -30 -1 -30 5 0 8 -4 8 -13 1 -7 -6 -33 -11 -58 -10 -24 1 -56
-2 -71 -5 -15 -4 -29 -3 -33 3 -3 5 3 10 15 10 12 0 18 4 15 10 -3 5 0 10 9
10 8 0 17 -6 19 -12 4 -10 6 -10 6 0 1 6 8 12 16 12 9 0 18 7 21 15 4 10 12
12 22 7 20 -10 70 -8 95 2 12 6 17 20 17 50 0 29 -3 37 -9 26 -6 -8 -7 -18 -5
-22 3 -4 0 -8 -5 -8 -6 0 -11 5 -11 11 0 6 -7 9 -15 5 -8 -3 -15 -2 -15 2 0
11 -117 4 -139 -7 -12 -7 -22 -6 -29 1 -8 8 -12 8 -12 2 0 -6 -21 -11 -47 -12
-82 -1 -113 -5 -113 -14 0 -5 -9 -4 -20 2 -18 10 -24 7 -22 -11 1 -4 -8 -5
-19 -2 -14 4 -17 9 -10 16 6 6 11 15 11 21 0 5 -6 2 -13 -7 -8 -12 -33 -19
-82 -23 -38 -4 -77 -9 -85 -13 -8 -4 -43 -7 -77 -6 -60 0 -78 -7 -50 -19 6 -3
1 -3 -13 1 -14 3 -35 6 -48 5 -13 -1 -32 3 -43 8 -13 8 -19 7 -19 0 0 -6 -15
-10 -32 -9 -18 0 -44 -3 -57 -7 -20 -6 -23 -4 -18 9 4 10 3 17 -1 17 -11 0
-34 -17 -33 -24 3 -18 0 -18 -15 0 -8 10 -12 13 -8 5 4 -9 2 -12 -7 -9 -8 3
-29 -1 -46 -9 -31 -13 -33 -12 -39 12 -7 27 -24 34 -24 11 0 -25 -18 -28 -39
-7 -18 18 -21 19 -30 4 -9 -16 -27 -23 -66 -23 -44 -1 -61 3 -77 18 -16 14
-20 13 -38 -3 -11 -10 -23 -15 -27 -12 -3 4 -12 2 -20 -5 -7 -6 -16 -8 -20 -4
-3 3 -1 6 5 6 6 0 9 9 7 20 -2 11 3 24 13 30 14 8 13 9 -8 9 -29 0 -60 -20
-60 -40 0 -10 -3 -10 -12 -1 -7 7 -16 12 -22 12 -6 0 -5 -5 2 -12 17 -17 15
-33 -3 -18 -12 10 -15 10 -15 -1 0 -10 -3 -10 -11 -2 -6 6 -17 9 -24 6 -8 -2
-19 5 -25 17 -11 21 -25 20 -25 -2 0 -6 -20 -11 -45 -12 -34 -1 -49 4 -60 19
-8 11 -14 23 -12 28 1 4 -3 7 -9 7 -6 0 -8 -7 -5 -16 4 -9 1 -23 -6 -32 -10
-12 -10 -16 0 -19 22 -8 12 -20 -16 -19 -16 1 -29 6 -29 13 0 7 3 10 7 8 3 -2
11 5 18 15 10 16 9 18 -3 14 -16 -7 -45 18 -45 38 0 10 -2 10 -8 1 -4 -7 -26
-14 -49 -15 -38 -3 -52 -18 -16 -18 15 0 42 -27 43 -42 0 -15 -28 -8 -34 8 -5
12 -21 14 -92 11 -79 -3 -87 -2 -94 17 -5 12 -9 15 -9 8 -1 -7 -9 -22 -20 -33
-17 -18 -19 -18 -25 -3 -4 11 -14 15 -30 12 -15 -3 -27 2 -35 14 -6 10 -20 18
-30 18 -11 0 -21 6 -24 13 -3 9 -7 9 -17 0 -9 -8 -19 -9 -32 -2 -24 13 -88 18
-88 7 0 -5 -4 -7 -9 -3 -5 3 -12 1 -15 -4 -3 -5 4 -11 16 -14 31 -9 18 -17
-36 -23 -38 -5 -46 -3 -46 11 0 9 -5 13 -10 10 -6 -4 -17 -1 -25 5 -12 10 -15
10 -15 -1 0 -10 -3 -10 -12 -1 -7 7 -16 12 -22 12 -6 0 -5 -5 2 -12 7 -7 12
-19 12 -27 0 -12 -3 -11 -18 2 -10 10 -23 17 -29 17 -6 0 -16 7 -23 15 -11 13
-16 13 -44 -3 -17 -9 -41 -27 -53 -40 -18 -18 -23 -19 -23 -8 0 9 5 16 11 16
8 0 8 4 -1 15 -12 14 -55 15 -77 2 -12 -8 -83 21 -95 38 -11 15 -9 -4 2 -26 9
-15 7 -21 -6 -26 -9 -3 -19 -2 -23 3 -3 5 -19 10 -36 10 -58 3 -88 11 -97 27
-7 14 -4 17 14 18 21 1 20 2 -7 14 -25 11 -27 15 -13 20 9 4 21 4 27 1 5 -4
12 -3 15 2 2 4 -4 13 -14 20 -14 9 -21 8 -30 -3 -7 -8 -19 -15 -27 -15 -9 0
-13 -6 -10 -14 3 -8 1 -17 -6 -20 -7 -2 -3 -5 8 -5 13 -1 21 -8 22 -21 2 -24
-3 -25 -25 -3 -16 15 -17 15 -20 0 -3 -13 -7 -15 -23 -7 -22 12 -26 32 -5 24
14 -5 33 13 23 22 -10 10 -57 -9 -57 -22 0 -17 -10 -18 -30 -3 -12 9 -11 10 4
5 19 -7 19 -6 2 12 -24 27 -71 34 -112 17 -19 -8 -34 -11 -34 -8 0 3 -6 0 -13
-6 -8 -6 -17 -8 -20 -4 -4 3 -15 -5 -26 -18 -11 -13 -23 -21 -27 -16 -4 4 -2
13 4 19 18 18 15 41 -4 34 -9 -3 -12 -2 -9 5 4 5 15 7 25 4 11 -3 20 0 24 10
3 8 13 15 23 14 11 0 13 -3 6 -6 -7 -2 -13 -12 -13 -20 0 -14 2 -14 18 0 10
10 19 23 19 30 0 19 -44 20 -51 1 -3 -9 -12 -14 -19 -11 -8 3 -28 -2 -45 -10
-29 -14 -34 -14 -57 1 -14 9 -30 14 -35 11 -6 -3 -10 -1 -10 4 0 6 -4 11 -10
11 -5 0 -10 -7 -10 -15 0 -8 -5 -15 -11 -15 -6 0 -9 6 -6 13 4 10 -4 11 -39 3
-24 -6 -44 -14 -44 -18 0 -11 18 -10 40 2 13 7 21 6 30 -5 7 -8 16 -12 21 -9
5 3 6 -2 3 -10 -3 -9 -10 -16 -16 -16 -5 0 -7 4 -4 9 3 4 -15 7 -39 6 -36 -1
-46 2 -51 17 -3 10 -9 18 -14 18 -5 0 -6 8 -3 17 5 12 0 10 -15 -5 -17 -17
-29 -21 -50 -16 -21 4 -24 3 -12 -5 8 -6 10 -11 5 -11 -6 0 -17 6 -24 13 -10
10 -12 9 -9 -2 2 -7 -2 -15 -9 -18 -7 -3 -9 3 -6 16 3 12 10 21 16 21 6 0 8 2
5 5 -3 3 -18 -1 -34 -10 -16 -8 -23 -15 -16 -15 6 0 12 -7 12 -15 0 -8 10 -23
22 -35 12 -11 16 -20 10 -20 -6 0 -23 18 -37 40 -26 41 -65 55 -65 24 0 -9 -5
-12 -12 -8 -7 5 -22 9 -33 11 -31 5 -48 9 -67 16 -38 15 -48 16 -53 7 -4 -7
-13 -6 -25 0 -26 14 -39 12 -15 -3 24 -14 29 -57 7 -57 -11 0 -12 3 -3 14 9
11 7 15 -10 19 -12 3 -30 2 -39 -3 -12 -6 -20 -3 -30 11 -17 22 -30 25 -30 5
0 -9 -7 -12 -20 -9 -11 3 -17 9 -14 14 3 5 0 9 -5 9 -6 0 -11 -7 -11 -15 0
-13 -7 -15 -37 -9 -21 4 -43 11 -50 16 -7 6 -14 5 -18 -2 -4 -6 -16 -8 -28 -5
-12 2 -16 2 -9 -1 19 -9 14 -24 -8 -24 -12 0 -20 7 -21 18 0 9 -3 12 -5 6 -3
-6 -16 -9 -31 -6 -14 3 -23 1 -20 -4 3 -5 -17 -9 -43 -9 -40 0 -53 5 -74 28
-29 31 -47 35 -41 10z m33 -28 c-3 -3 -9 2 -12 12 -6 14 -5 15 5 6 7 -7 10
-15 7 -18z m1112 -15 c0 -4 -7 -10 -15 -14 -8 -3 -15 -4 -15 -2 0 3 -3 11 -6
19 -4 12 0 14 15 10 12 -3 21 -9 21 -13z m-840 1 c0 -5 -9 -7 -20 -4 -11 3
-20 7 -20 9 0 2 9 4 20 4 11 0 20 -4 20 -9z m340 -6 c0 -9 -6 -12 -15 -9 -8 4
-15 10 -15 15 0 5 7 9 15 9 8 0 15 -7 15 -15z m-170 -11 c0 -2 -7 -4 -15 -4
-8 0 -15 4 -15 10 0 5 7 7 15 4 8 -4 15 -8 15 -10z m735 6 c17 -7 17 -9 3 -9
-10 -1 -18 -9 -19 -18 0 -15 -2 -15 -9 2 -16 37 -12 41 25 25z m221 -2 c4 -6
3 -8 -3 -5 -6 4 -14 0 -17 -9 -3 -8 -11 -12 -17 -8 -8 5 -9 3 -4 -5 4 -7 16
-11 26 -8 11 3 19 1 19 -4 0 -15 -50 -10 -66 6 -9 9 -11 15 -4 15 6 0 9 4 5 9
-3 5 7 12 22 14 16 2 29 5 30 6 1 0 5 -4 9 -11z m-641 -8 c3 -5 2 -10 -4 -10
-5 0 -13 5 -16 10 -3 6 -2 10 4 10 5 0 13 -4 16 -10z m-110 -30 c3 -5 -1 -10
-10 -10 -9 0 -13 5 -10 10 3 6 8 10 10 10 2 0 7 -4 10 -10z m635 -11 c0 -5 -4
-9 -8 -9 -5 0 -9 7 -9 15 0 8 4 12 9 9 4 -3 8 -9 8 -15z m1050 9 c0 -4 -4 -8
-10 -8 -5 0 -10 -7 -10 -15 0 -8 -7 -15 -16 -15 -8 0 -12 5 -9 11 4 6 -1 16
-11 24 -17 12 -15 13 19 12 20 0 37 -5 37 -9z m2150 -16 c-8 -3 -18 -9 -21
-15 -4 -5 -9 -5 -13 2 -4 6 -2 11 4 11 7 0 10 7 6 15 -5 13 -2 14 17 4 17 -10
19 -13 7 -17z m-3035 8 c-3 -5 -10 -10 -16 -10 -5 0 -9 5 -9 10 0 6 7 10 16
10 8 0 12 -4 9 -10z m1339 -5 c3 -8 1 -15 -4 -15 -6 0 -10 7 -10 15 0 8 2 15
4 15 2 0 6 -7 10 -15z m411 6 c3 -5 1 -12 -5 -16 -5 -3 -10 1 -10 9 0 18 6 21
15 7z m930 -1 c3 -5 1 -10 -4 -10 -6 0 -11 5 -11 10 0 6 2 10 4 10 3 0 8 -4
11 -10z m-1735 -10 c-20 -13 -50 -13 -50 0 0 6 15 10 33 10 24 0 28 -3 17 -10z
m-1616 -25 c3 -8 -3 -19 -13 -25 -17 -9 -18 -7 -7 15 13 29 12 29 20 10z
m1251 5 c-3 -5 -11 -10 -16 -10 -6 0 -7 5 -4 10 3 6 11 10 16 10 6 0 7 -4 4
-10z m245 -5 c0 -8 -2 -15 -4 -15 -2 0 -6 7 -10 15 -3 8 -1 15 4 15 6 0 10 -7
10 -15z m-653 -1 c-3 -3 -12 -4 -19 -1 -8 3 -5 6 6 6 11 1 17 -2 13 -5z m1333
-4 c0 -5 -5 -10 -11 -10 -5 0 -7 5 -4 10 3 6 8 10 11 10 2 0 4 -4 4 -10z m230
0 c0 -5 -4 -10 -10 -10 -5 0 -10 5 -10 10 0 6 5 10 10 10 6 0 10 -4 10 -10z
m114 2 c3 -5 -1 -9 -9 -9 -8 0 -15 4 -15 9 0 4 4 8 9 8 6 0 12 -4 15 -8z
m-2049 -12 c-3 -5 -13 -10 -21 -10 -8 0 -12 5 -9 10 3 6 13 10 21 10 8 0 12
-4 9 -10z m3085 -10 c0 -5 -7 -10 -15 -10 -8 0 -15 5 -15 10 0 6 7 10 15 10 8
0 15 -4 15 -10z m-2760 -30 c0 -5 -2 -10 -4 -10 -3 0 -8 5 -11 10 -3 6 -1 10
4 10 6 0 11 -4 11 -10z m2690 6 c0 -3 -4 -8 -10 -11 -5 -3 -10 -1 -10 4 0 6 5
11 10 11 6 0 10 -2 10 -4z m250 -28 c0 -13 -23 -5 -28 10 -2 7 2 10 12 6 9 -3
16 -11 16 -16z"/>
<path d="M260 400 c0 -5 5 -10 10 -10 6 0 10 5 10 10 0 6 -4 10 -10 10 -5 0
-10 -4 -10 -10z"/>
<path d="M565 400 c-3 -5 -1 -10 4 -10 6 0 11 5 11 10 0 6 -2 10 -4 10 -3 0
-8 -4 -11 -10z"/>
<path d="M1428 397 c8 -10 27 -16 46 -15 18 1 38 -2 45 -6 16 -10 51 3 45 17
-2 7 -23 12 -48 12 -24 0 -42 -3 -39 -7 7 -12 -15 -10 -40 4 -20 10 -21 10 -9
-5z"/>
<path d="M1595 400 c-3 -6 1 -7 9 -4 10 4 16 1 16 -10 0 -9 6 -13 14 -10 8 3
12 12 9 20 -6 16 -39 19 -48 4z"/>
<path d="M1658 403 c7 -3 16 -2 19 1 4 3 -2 6 -13 5 -11 0 -14 -3 -6 -6z"/>
<path d="M1785 398 c-14 -9 -15 -12 -4 -19 11 -7 9 -13 -11 -29 -19 -15 -21
-20 -9 -20 9 0 22 -7 29 -15 7 -8 17 -15 23 -15 5 0 0 8 -12 19 -17 15 -19 20
-8 30 8 6 17 8 20 4 4 -3 7 -2 7 4 0 6 -7 14 -16 17 -22 8 -8 25 16 19 11 -3
20 -3 20 0 0 10 -38 14 -55 5z"/>
<path d="M1926 401 c-3 -5 1 -11 9 -14 9 -4 12 -1 8 9 -6 16 -10 17 -17 5z"/>
<path d="M2380 400 c-13 -8 -12 -10 3 -10 9 0 17 5 17 10 0 12 -1 12 -20 0z"/>
<path d="M155 390 c3 -5 11 -10 16 -10 6 0 7 5 4 10 -3 6 -11 10 -16 10 -6 0
-7 -4 -4 -10z"/>
<path d="M2018 393 c6 -2 10 -9 6 -14 -3 -5 2 -9 10 -9 10 0 13 6 10 15 -4 8
-14 15 -23 14 -10 0 -11 -2 -3 -6z"/>
<path d="M1230 386 c0 -9 40 -13 46 -5 3 5 -6 9 -20 9 -14 0 -26 -2 -26 -4z"/>
<path d="M2251 374 c0 -11 3 -14 6 -6 3 7 2 16 -1 19 -3 4 -6 -2 -5 -13z"/>
<path d="M4550 380 c-9 -6 -10 -10 -3 -10 6 0 15 5 18 10 8 12 4 12 -15 0z"/>
<path d="M2318 373 c7 -3 16 -2 19 1 4 3 -2 6 -13 5 -11 0 -14 -3 -6 -6z"/>
<path d="M1841 361 c-10 -6 -10 -10 -1 -16 13 -8 24 -1 19 14 -3 6 -10 7 -18
2z"/>
<path d="M2120 360 c0 -5 5 -10 11 -10 5 0 7 5 4 10 -3 6 -8 10 -11 10 -2 0
-4 -4 -4 -10z"/>
<path d="M1895 350 c3 -5 8 -10 11 -10 2 0 4 5 4 10 0 6 -5 10 -11 10 -5 0 -7
-4 -4 -10z"/>
<path d="M4183 353 c4 -3 2 -12 -4 -19 -8 -9 -5 -11 11 -7 16 4 18 8 9 19 -6
8 -14 14 -17 14 -3 0 -2 -3 1 -7z"/>
<path d="M2041 334 c-12 -14 -12 -17 0 -25 22 -14 27 -11 25 16 -1 29 -6 30
-25 9z"/>
<path d="M2090 325 c-8 -9 -8 -15 -2 -15 12 0 26 19 19 26 -2 2 -10 -2 -17
-11z"/>
<path d="M2316 331 c-4 -5 -2 -12 3 -15 5 -4 12 -2 15 3 4 5 2 12 -3 15 -5 4
-12 2 -15 -3z"/>
<path d="M2607 310 l-18 -30 26 2 c22 2 24 4 10 14 -13 10 -13 13 7 27 17 11
19 16 8 16 -9 1 -24 -12 -33 -29z"/>
<path d="M1970 320 c0 -5 10 -10 23 -10 18 0 19 2 7 10 -19 13 -30 13 -30 0z"/>
<path d="M3565 320 c3 -5 8 -10 11 -10 2 0 4 5 4 10 0 6 -5 10 -11 10 -5 0 -7
-4 -4 -10z"/>
<path d="M3603 323 c9 -2 25 -2 35 0 9 3 1 5 -18 5 -19 0 -27 -2 -17 -5z"/>
<path d="M1908 313 c7 -3 16 -2 19 1 4 3 -2 6 -13 5 -11 0 -14 -3 -6 -6z"/>
<path d="M3360 303 c0 -6 9 -9 20 -6 30 8 32 18 4 18 -13 0 -24 -5 -24 -12z"/>
<path d="M3523 308 c-31 -15 -29 -26 2 -20 14 2 25 11 25 18 0 8 -1 14 -2 13
-2 0 -13 -5 -25 -11z"/>
<path d="M2290 306 c0 -2 7 -7 16 -10 8 -3 12 -2 9 4 -6 10 -25 14 -25 6z"/>
<path d="M3030 301 c0 -6 5 -13 10 -16 6 -3 10 1 10 9 0 9 -4 16 -10 16 -5 0
-10 -4 -10 -9z"/>
<path d="M3173 291 c0 -11 5 -18 9 -15 4 3 5 11 1 19 -7 21 -12 19 -10 -4z"/>
<path d="M3698 303 c7 -3 16 -2 19 1 4 3 -2 6 -13 5 -11 0 -14 -3 -6 -6z"/>
<path d="M2730 290 c18 -12 63 -13 56 -2 -2 4 -19 9 -38 10 -25 2 -29 0 -18
-8z"/>
<path d="M3447 289 c7 -7 15 -10 18 -7 3 3 -2 9 -12 12 -14 6 -15 5 -6 -5z"/>
</g>
</svg>
